<?xml version="1.0" encoding="UTF-8"?>
<svg width="24px" height="24px" viewBox="0 0 24 24" version="1.1" xmlns="http://www.w3.org/2000/svg">
    <g stroke="none" stroke-width="1" fill="none" fill-rule="evenodd">
        <path d="M9.5,3 L4.5,3 C3.67157288,3 3,3.67157288 3,4.5 L3,9.5 C3,10.3284271 3.67157288,11 4.5,11 L9.5,11 C10.3284271,11 11,10.3284271 11,9.5 L11,4.5 C11,3.67157288 10.3284271,3 9.5,3 Z M19.5,3 L14.5,3 C13.6715729,3 13,3.67157288 13,4.5 L13,9.5 C13,10.3284271 13.6715729,11 14.5,11 L19.5,11 C20.3284271,11 21,10.3284271 21,9.5 L21,4.5 C21,3.67157288 20.3284271,3 19.5,3 Z" fill="#005FA1"/>
    </g>
</svg> 